<svg version="1.2" baseProfile="tiny-ps" xmlns="http://www.w3.org/2000/svg" viewBox="0 0 816 231" width="816" height="231">
	<rect width="816" height="231" id="Color Fill 2" style="fill: #ffffff" />
	<rect width="816" height="231" id="Color Fill 1" style="fill: #ffffff" />
	<path id="IPMS " fill="#ffffff" aria-label="IPMS"  d="M238.03 208L238.03 22.1L263.18 22.1L263.18 208L238.03 208ZM370.01 42.77L338.38 42.77L338.38 112.62L370.01 112.62Q387.57 112.62 397.15 103.53Q406.74 94.45 406.74 77.64Q406.74 60.95 397.15 51.86Q387.57 42.77 370.01 42.77ZM313.23 208L313.23 22.1L370.01 22.1Q401.26 22.1 417.2 36.3Q433.26 50.37 433.26 77.64Q433.26 105.15 417.2 119.22Q401.26 133.29 370.01 133.29L338.38 133.29L338.38 208L313.23 208ZM467 208L467 22.1L504.48 22.1L551.92 148.61L599.61 22.1L637.09 22.1L637.09 208L612.56 208L612.56 44.77L564.62 172.27L539.35 172.27L491.41 44.77L491.41 208L467 208ZM798.45 28.21L798.45 52.73Q784.14 45.89 771.44 42.52Q758.73 39.16 746.91 39.16Q726.36 39.16 715.16 47.13Q704.07 55.1 704.07 69.79Q704.07 82.12 711.42 88.47Q718.89 94.69 739.56 98.55L754.75 101.67Q782.89 107.02 796.21 120.59Q809.66 134.04 809.66 156.7Q809.66 183.72 791.48 197.67Q773.43 211.61 738.44 211.61Q725.24 211.61 710.3 208.62Q695.48 205.63 679.55 199.78L679.55 173.88Q694.86 182.48 709.55 186.83Q724.25 191.19 738.44 191.19Q759.98 191.19 771.68 182.72Q783.39 174.26 783.39 158.57Q783.39 144.87 774.92 137.15Q766.58 129.43 747.4 125.57L732.09 122.58Q703.95 116.98 691.37 105.03Q678.8 93.08 678.8 71.78Q678.8 47.13 696.11 32.94Q713.54 18.74 744.04 18.74Q757.12 18.74 770.69 21.11Q784.26 23.47 798.45 28.21Z" />
</svg>
