<?xml version="1.0" standalone="no"?>
<!DOCTYPE svg PUBLIC "-//W3C//DTD SVG 20010904//EN"
 "http://www.w3.org/TR/2001/REC-SVG-20010904/DTD/svg10.dtd">
<svg version="1.0" xmlns="http://www.w3.org/2000/svg"
 width="552.000000pt" height="552.000000pt" viewBox="0 0 552.000000 552.000000"
 preserveAspectRatio="xMidYMid meet">
<metadata>
Created by potrace 1.14, written by Peter Selinger 2001-2017
</metadata>
<g transform="translate(0.000000,552.000000) scale(0.100000,-0.100000)"
fill="#000000" stroke="none">
<path d="M3527 5358 c-9 -5 -12 -308 -12 -1261 0 -691 3 -1258 5 -1260 24 -22
419 -34 873 -28 l97 1 -2 1277 -3 1276 -355 0 c-195 -1 -359 -2 -365 -3 -5 -1
-12 -1 -15 0 -14 5 -213 4 -223 -2z"/>
<path d="M2450 3819 l0 -767 38 -15 c30 -12 87 -28 112 -32 3 0 10 -3 15 -6 6
-4 26 -10 45 -13 19 -4 58 -13 85 -21 81 -22 282 -65 375 -80 19 -3 42 -8 50
-10 8 -2 38 -7 65 -10 28 -3 65 -7 83 -9 l32 -5 -2 867 -3 867 -447 0 -448 1
0 -767z"/>
<path d="M444 4388 c0 -13 -4 -52 -8 -88 -4 -36 -9 -85 -11 -110 -1 -25 -6
-72 -9 -105 -4 -33 -8 -80 -11 -105 -2 -25 -6 -65 -9 -90 -3 -25 -8 -71 -11
-104 l-5 -58 22 14 c13 8 34 21 48 29 14 8 27 16 30 19 13 14 167 110 176 110
9 0 94 -89 201 -209 17 -20 63 -70 102 -111 51 -53 77 -91 91 -130 11 -30 25
-64 30 -75 20 -45 62 -174 59 -184 -2 -6 -80 -87 -172 -180 -158 -160 -167
-172 -156 -193 7 -13 15 -25 18 -28 15 -11 141 -191 141 -200 0 -13 31 -13 65
0 14 5 36 12 48 14 20 4 47 12 227 66 36 11 72 20 81 20 8 0 20 5 26 11 11 11
53 -7 53 -23 0 -5 6 -8 14 -8 8 0 16 -4 18 -9 2 -6 161 -140 186 -157 4 -2
-22 -110 -58 -234 -17 -58 -32 -113 -35 -124 -2 -10 -12 -43 -20 -74 -9 -30
-14 -60 -12 -66 3 -7 71 -51 151 -100 l146 -87 91 88 c50 48 135 131 188 184
91 90 98 95 126 87 17 -4 41 -10 55 -13 14 -3 34 -7 45 -9 48 -9 162 -27 184
-29 25 -2 35 -20 44 -82 4 -22 20 -114 37 -205 17 -91 32 -174 33 -185 2 -19
8 -20 122 -17 189 6 213 7 219 12 4 5 102 359 112 407 6 29 22 73 27 73 3 0
59 11 125 25 66 14 125 25 130 25 6 0 41 -24 78 -53 38 -29 119 -91 179 -137
61 -46 112 -87 113 -92 2 -4 10 -8 17 -8 7 0 16 -7 19 -16 9 -25 40 -12 151
62 131 87 126 81 114 132 -5 23 -12 58 -15 78 -3 20 -8 45 -10 55 -11 51 -14
66 -19 99 -3 19 -11 63 -18 97 l-13 61 70 0 c77 0 266 14 286 22 3 1 8 2 12 1
4 0 42 6 85 14 43 8 89 17 103 20 14 2 46 9 71 15 26 6 55 13 65 15 11 2 19 4
19 6 0 1 9 3 20 4 11 1 47 10 80 20 33 9 116 33 185 52 69 20 132 39 140 44
14 8 -97 4 -180 -7 -145 -18 -741 -24 -960 -10 -185 11 -310 22 -360 31 -14 2
-50 7 -80 10 -30 3 -82 10 -115 15 -33 6 -78 13 -100 16 -142 20 -540 114
-705 166 -111 35 -394 139 -404 149 -6 5 -16 9 -22 9 -36 0 -475 220 -582 291
-24 16 -45 29 -48 29 -16 0 -339 225 -419 292 -11 9 -31 26 -45 38 -86 71
-110 92 -182 160 -174 163 -307 311 -417 463 -35 48 -64 87 -65 87 -1 0 -2
-10 -2 -22z"/>
<path d="M1414 4041 c-2 -2 -4 -110 -4 -240 l0 -236 82 -55 c45 -30 89 -58 98
-63 8 -4 27 -15 42 -25 118 -77 454 -245 556 -276 l22 -7 -2 452 -3 453 -393
1 c-217 0 -396 -2 -398 -4z"/>
<path d="M3417 1023 c-2 -1 -18 -5 -37 -8 -56 -10 -134 -50 -168 -86 -67 -71
-86 -223 -40 -316 42 -85 121 -125 326 -168 44 -10 57 -13 82 -24 39 -16 56
-34 64 -64 19 -77 -35 -120 -153 -121 -64 0 -118 5 -166 18 -18 5 -50 18 -103
42 -29 13 -56 24 -61 24 -14 0 -12 -187 2 -198 13 -10 158 -47 225 -57 47 -8
196 -8 227 -1 151 32 211 78 248 185 14 42 16 160 4 206 -3 11 -6 23 -6 27 -2
15 -57 71 -91 93 -41 26 -137 58 -226 75 -32 6 -70 13 -83 16 -30 6 -78 31
-86 44 -28 45 -7 103 43 124 36 14 186 16 238 3 57 -15 125 -37 143 -47 21
-10 21 -9 21 82 0 87 -10 131 -25 116 -4 -4 -17 -3 -30 2 -20 8 -64 16 -130
26 -11 1 -20 3 -20 4 0 3 -196 6 -198 3z"/>
<path d="M5120 1018 c-61 -9 -192 -38 -200 -45 -7 -7 -8 -203 -1 -203 3 0 21
9 40 21 72 44 157 68 231 66 l71 -3 -3 86 -3 85 -40 0 c-22 1 -65 -3 -95 -7z"/>
<path d="M479 988 c-1 -13 0 -27 1 -33 1 -5 1 -17 1 -25 -4 -230 -1 -741 3
-749 4 -6 3 -11 -1 -11 -5 0 -6 -21 -3 -47 l5 -48 120 0 c97 1 119 4 117 15
-2 7 -3 50 -2 94 1 45 1 88 1 96 0 8 0 56 0 105 1 111 -1 156 -6 164 -2 3 0
25 5 49 4 23 4 60 0 82 -4 22 -4 43 0 45 4 3 5 20 1 37 -4 18 -5 44 -4 58 6
48 4 170 -2 180 -4 6 -54 10 -121 10 -111 0 -114 -1 -115 -22z"/>
<path d="M959 993 c-3 -47 -4 -899 -2 -908 2 -6 49 -10 121 -10 l117 0 1 160
1 160 40 1 c23 1 48 4 57 7 8 3 18 2 21 -3 3 -5 11 -7 18 -5 7 2 44 6 82 9 82
7 116 15 170 45 89 49 137 135 138 246 2 166 -87 273 -252 303 -29 5 -156 10
-282 11 -214 2 -229 1 -230 -16z m441 -172 c40 -17 56 -34 68 -71 21 -63 -2
-131 -53 -158 -36 -19 -214 -26 -216 -8 -1 14 -1 251 0 251 17 5 183 -6 201
-14z"/>
<path d="M1897 1003 c-3 -7 -2 -892 2 -918 1 -11 199 -14 216 -3 6 4 10 123 9
327 -1 177 2 321 5 321 3 0 17 -26 30 -58 13 -31 30 -70 37 -87 7 -16 42 -97
78 -180 l64 -150 76 0 76 -1 104 244 c57 135 105 240 108 236 2 -5 4 -152 4
-327 -1 -175 1 -321 4 -325 3 -4 53 -8 113 -8 101 0 107 1 108 21 1 26 1 863
0 893 -1 22 -2 22 -147 22 -139 0 -147 -1 -165 -22 -10 -13 -18 -29 -19 -36 0
-7 -4 -20 -9 -30 -5 -9 -16 -34 -25 -54 -9 -21 -22 -53 -30 -70 -8 -18 -29
-67 -46 -108 -65 -155 -64 -153 -76 -157 -6 -2 -18 16 -28 39 -10 24 -24 57
-31 73 -7 17 -25 59 -39 95 -15 36 -31 74 -36 85 -5 11 -25 56 -44 100 l-35
80 -150 3 c-82 1 -151 -1 -154 -5z"/>
<path d="M4000 768 c0 -5 12 -36 26 -71 14 -34 27 -69 29 -77 3 -14 43 -116
64 -165 5 -11 37 -92 71 -180 34 -88 66 -169 71 -180 9 -18 19 -20 129 -20 65
0 121 3 124 5 2 3 43 104 91 225 47 121 90 229 95 240 5 11 25 63 45 115 21
52 39 100 41 105 3 7 -35 11 -108 10 l-112 0 -66 -180 c-36 -99 -66 -184 -67
-190 -2 -5 -8 -23 -14 -40 -14 -36 -16 -42 -18 -55 0 -5 -6 -10 -11 -10 -6 0
-9 3 -8 7 2 7 -58 181 -82 238 -4 11 -22 61 -39 110 -18 50 -36 97 -41 105 -7
12 -32 15 -115 15 -58 0 -105 -3 -105 -7z"/>
<path d="M5210 517 c-20 -17 -69 -61 -110 -97 -40 -36 -85 -76 -99 -89 -14
-13 -41 -36 -59 -51 l-33 -27 3 -89 3 -89 170 0 170 0 3 88 c3 93 2 95 -55 88
-21 -3 -15 9 22 42 l35 31 0 113 c0 62 -3 113 -7 113 -5 0 -24 -15 -43 -33z"/>
</g>
</svg>
