<svg data-v-423bf9ae="" xmlns="http://www.w3.org/2000/svg" viewBox="0 0 172.55556477833252 60" class="font"><!----><!----><!----><g data-v-423bf9ae="" id="80e90ffd-1b2d-49b2-bb88-22ec4808b5d0" fill="black" transform="matrix(5.55555594801415,0,0,5.55555594801415,0.8333321352305916,0.8333330378856232)"><path d="M3.21 10.50L-0.15 10.50L-0.15 9.33L0.44 9.33L0.44 1.17L-0.15 1.17L-0.15 0L3.21 0L3.21 1.17L2.63 1.17L2.63 9.33L3.21 9.33L3.21 10.50ZM4.23 10.50L4.23 0L8.75 0L8.75 0Q11.52 0 11.52 2.04L11.52 2.04L11.52 4.38L11.52 4.38Q11.52 6.56 8.75 6.56L8.75 6.56L6.42 6.56L6.42 10.50L4.23 10.50ZM6.42 5.10L8.17 5.10L8.17 5.10Q9.33 5.10 9.33 4.08L9.33 4.08L9.33 2.48L9.33 2.48Q9.33 1.46 8.17 1.46L8.17 1.46L6.42 1.46L6.42 5.10ZM22.59 10.50L22.59 0L20.26 0L17.90 7.72L15.45 0L12.82 0L12.82 10.50L14.43 10.50L14.43 3.47L16.32 10.50L18.51 10.50L20.41 3.88L20.41 10.50L22.59 10.50ZM25.80 2.63L25.80 2.63L25.80 2.04L25.80 2.04Q25.80 1.31 27.26 1.31L27.26 1.31L27.26 1.31Q28.72 1.31 28.72 2.04L28.72 2.04L28.72 3.21L30.91 3.21L30.91 1.75L30.91 1.75Q30.91-0.15 27.26-0.15L27.26-0.15L27.26-0.15Q23.61-0.15 23.61 1.75L23.61 1.75L23.61 3.50L23.61 3.50Q23.61 4.96 26.56 5.54L26.56 5.54L27.96 5.90L27.96 5.90Q28.72 6.13 28.72 7L28.72 7L28.72 8.46L28.72 8.46Q28.72 9.19 27.26 9.19L27.26 9.19L27.26 9.19Q25.80 9.19 25.80 8.46L25.80 8.46L25.80 7.29L23.61 7.29L23.61 8.75L23.61 8.75Q23.61 10.65 27.26 10.65L27.26 10.65L27.26 10.65Q30.91 10.65 30.91 8.75L30.91 8.75L30.91 6.42L30.91 6.42Q30.91 4.67 27.96 4.08L27.96 4.08L26.56 3.72L26.56 3.72Q25.80 3.50 25.80 2.63Z"></path></g><!----><!----></svg>